# xmcd CD database file
#
# Track frame offsets:
#	150
#	60473
#	125093
#	178033
#	246592
#
# Disc length: 4079 seconds
#
# Revision: 0
# Processed by: cddbd v1.5.2PL0 Copyright (c) Steve Scherf et al.
# Submitted via: CDex 1.51
#
DISCID=470fed05
DTITLE=The New Couriers - Brazillian  Throughfare
DYEAR=2008
DGENRE=Jazz
TTITLE0=The Chant
TTITLE1=New Delhi
TTITLE2=Falling In Love
TTITLE3=Brazillion Throughfare
TTITLE4=You And The Night And The Music
EXTD=YEAR: 2008
EXTT0=
EXTT1=
EXTT2=
EXTT3=
EXTT4=
PLAYORDER=
